<svg version="1.1" id="Layer_1" xmlns="http://www.w3.org/2000/svg" xmlns:xlink="http://www.w3.org/1999/xlink" x="0px" y="0px"
	 width="100%" viewBox="0 0 192 192" enable-background="new 0 0 192 192" xml:space="preserve">
<path fill="#000000" opacity="1.000000" stroke="none" 
	d="
M193.000000,146.000000 
	C193.000000,147.388885 193.000000,148.777786 192.531342,150.585785 
	C166.889679,151.419037 141.716675,151.833206 116.293808,152.251480 
	C116.657166,157.187164 116.973045,161.477982 117.230957,164.981339 
	C137.023102,164.981339 156.410660,164.981339 175.884140,165.328171 
	C176.355453,166.067017 176.740845,166.459015 177.126236,166.851028 
	C177.489883,166.224396 177.853531,165.597763 178.669586,164.981171 
	C183.748001,164.994156 188.373993,164.997086 193.000000,165.000000 
	C193.000000,174.318024 193.000000,183.636032 193.000000,192.977020 
	C129.120331,192.977020 65.240646,192.977020 1.000000,192.977020 
	C1.000000,177.647659 1.000000,162.292480 1.452408,146.468964 
	C4.166843,146.000610 6.428870,146.000610 9.087666,146.000610 
	C9.087666,138.923416 9.087666,132.440094 9.087666,125.956772 
	C9.244432,125.956078 9.401198,125.955376 9.557965,125.954681 
	C11.490704,132.579651 13.423442,139.204620 15.366376,145.864548 
	C21.240244,145.864548 26.878151,145.864548 32.604176,145.864548 
	C34.930950,138.113007 37.228184,130.459869 39.525421,122.806747 
	C39.742836,122.835663 39.960251,122.864571 40.177666,122.893486 
	C40.177666,130.493210 40.177666,138.092926 40.177666,145.705658 
	C45.962704,145.705658 51.367741,145.705658 57.165539,145.705658 
	C57.165539,142.603165 57.165539,139.793411 57.478973,137.153900 
	C60.539875,142.273285 63.084961,147.348557 66.074272,152.147064 
	C73.813324,164.570068 81.748177,176.871078 89.822433,189.562805 
	C91.143532,188.176712 92.219551,187.358994 92.897400,186.289032 
	C100.733231,173.920319 108.584030,161.559830 116.272789,149.099640 
	C121.056343,141.347549 125.850876,133.539383 126.503418,124.202255 
	C127.226593,126.662743 127.554794,128.932556 128.012344,131.175980 
	C131.018906,145.917847 131.378036,146.102203 146.062347,146.084702 
	C149.102234,146.081085 150.315292,145.109695 151.084839,142.248627 
	C153.914902,131.727097 157.005524,121.275665 159.995911,110.797241 
	C162.112869,103.379387 164.226257,95.960503 166.495148,88.002266 
	C162.216248,88.002266 158.726608,87.819885 155.275818,88.105904 
	C154.141037,88.199959 152.479568,89.293449 152.138016,90.297134 
	C150.840973,94.108543 150.063400,98.092659 148.947159,101.970634 
	C147.241318,107.896889 145.415710,113.788673 143.586945,119.874825 
	C142.941010,119.343613 142.523529,119.177078 142.450928,118.914993 
	C139.943817,109.865196 137.528030,100.789459 134.927429,91.766930 
	C134.533096,90.398796 133.365646,88.258476 132.446762,88.200394 
	C127.067841,87.860382 121.656487,88.033516 115.833534,88.033516 
	C116.309525,90.076462 116.595078,91.302048 116.548019,92.391945 
	C110.157852,88.811424 104.100288,85.366592 98.011185,81.964615 
	C97.979637,82.007462 97.917435,82.093803 98.364685,82.102509 
	C101.270821,82.246590 103.745621,82.248947 106.185837,82.540588 
	C116.220520,83.739861 126.576614,77.455276 129.650909,67.906990 
	C134.176254,53.851959 131.075302,39.446640 132.089233,25.370270 
	C125.911270,25.370270 120.512428,25.370270 114.999168,25.370270 
	C114.999168,34.563450 115.246239,43.395336 114.907387,52.204689 
	C114.700966,57.571297 113.956459,62.991558 112.693855,68.203659 
	C112.239738,70.078300 109.797592,72.251068 107.844887,72.799171 
	C104.957870,73.609528 102.366753,72.095497 101.644279,68.701073 
	C101.072441,66.014359 100.114899,63.324226 100.075027,60.624588 
	C99.901306,48.860901 100.000389,37.093185 100.000389,25.661663 
	C79.373055,25.661663 59.318180,25.661663 39.329727,25.661663 
	C38.984264,27.402372 38.652195,29.075615 38.296585,30.867443 
	C34.593681,27.989052 31.557751,25.150005 28.085037,23.024628 
	C19.601704,17.832644 10.334308,18.303579 1.000000,20.000000 
	C1.000000,13.678479 1.000000,7.356958 1.000000,1.052761 
	C65.000023,1.052761 129.000031,1.052761 193.000000,1.052761 
	C193.000000,8.757886 193.000000,16.410252 192.546539,24.531734 
	C189.825485,25.000854 187.557922,25.000854 185.286728,25.000854 
	C185.286728,29.962669 185.286728,34.368080 185.286728,39.000000 
	C188.046021,39.000000 190.523010,39.000000 193.000000,39.000000 
	C193.000000,40.714359 193.000000,42.428715 192.546417,44.571575 
	C189.824249,45.000076 187.555695,45.000076 185.284546,45.000076 
	C185.284546,57.959682 185.284546,70.362862 185.284546,83.000000 
	C188.042908,83.000000 190.521454,83.000000 193.000000,83.000000 
	C193.000000,84.388893 193.000000,85.777779 192.531342,87.584061 
	C183.801910,88.001457 175.541138,88.001457 167.300552,88.001457 
	C167.300552,107.633728 167.300552,126.682922 167.300552,146.000000 
	C176.066071,146.000000 184.533035,146.000000 193.000000,146.000000 
M132.999496,30.617050 
	C132.999496,47.866875 132.999496,65.116699 132.999496,83.431244 
	C143.601028,82.852631 153.835083,83.434006 163.548935,81.458054 
	C174.248260,79.281624 179.777100,70.773239 182.255646,60.280659 
	C185.496170,46.562340 178.519272,28.487770 161.835098,25.430363 
	C152.696014,23.755611 142.998001,25.131002 133.232727,25.131002 
	C133.148499,26.760921 133.074005,28.202766 132.999496,30.617050 
z"/>
<path fill="#2CC1FD" opacity="1.000000" stroke="none" 
	d="
M1.000000,20.468658 
	C10.334308,18.303579 19.601704,17.832644 28.085037,23.024628 
	C31.557751,25.150005 34.593681,27.989052 38.296585,30.867443 
	C38.652195,29.075615 38.984264,27.402372 39.329727,25.661663 
	C59.318180,25.661663 79.373055,25.661663 100.000389,25.661663 
	C100.000389,37.093185 99.901306,48.860901 100.075027,60.624588 
	C100.114899,63.324226 101.072441,66.014359 101.644279,68.701073 
	C102.366753,72.095497 104.957870,73.609528 107.844887,72.799171 
	C109.797592,72.251068 112.239738,70.078300 112.693855,68.203659 
	C113.956459,62.991558 114.700966,57.571297 114.907387,52.204689 
	C115.246239,43.395336 114.999168,34.563450 114.999168,25.370270 
	C120.512428,25.370270 125.911270,25.370270 132.089233,25.370270 
	C131.075302,39.446640 134.176254,53.851959 129.650909,67.906990 
	C126.576614,77.455276 116.220520,83.739861 106.185837,82.540588 
	C103.745621,82.248947 101.270821,82.246590 98.309143,81.741577 
	C92.097954,79.326851 87.497116,75.737991 85.643379,69.967232 
	C83.867722,64.439560 82.792816,58.609589 82.116425,52.829800 
	C81.549133,47.982319 81.999870,43.015697 81.999870,38.217106 
	C77.318207,38.217106 73.376030,38.217106 68.926117,38.217106 
	C68.926117,53.128262 68.926117,67.831749 68.926117,82.623245 
	C63.026203,82.623245 57.646957,82.623245 51.795715,82.623245 
	C51.795715,67.595078 51.795715,52.883366 51.795715,38.461704 
	C46.591434,38.000595 41.885696,37.583656 37.441776,37.034599 
	C37.742729,36.435581 37.781864,35.968681 37.820999,35.501785 
	C37.344170,35.750393 36.867340,35.998997 36.132500,36.469936 
	C34.228848,38.230400 32.583206,39.768536 30.955606,41.289810 
	C17.571384,27.772388 11.757452,25.904285 6.742361,33.935085 
	C9.264129,35.636055 11.764077,37.424397 14.363172,39.054672 
	C20.191914,42.710743 26.379509,45.876278 31.856876,49.992245 
	C40.533520,56.512310 41.808941,68.927689 34.099285,76.630562 
	C29.055464,81.669945 23.223520,83.902840 16.559057,83.871223 
	C11.369864,83.846611 6.186150,82.666557 1.000000,82.000000 
	C1.000000,77.643097 1.000000,73.286201 1.361818,68.422623 
	C5.706995,70.753922 9.557575,74.126053 14.970549,72.918922 
	C16.394760,72.601303 17.908216,71.530502 18.777651,70.358292 
	C19.221739,69.759560 18.694359,67.535423 17.985804,67.130020 
	C12.408448,63.938854 6.681136,61.009781 1.000000,58.000000 
	C1.000000,45.645771 1.000000,33.291542 1.000000,20.468658 
z"/>
<path fill="#FCCE2D" opacity="1.000000" stroke="none" 
	d="
M57.165539,136.983673 
	C57.165539,139.793411 57.165539,142.603165 57.165539,145.705658 
	C51.367741,145.705658 45.962704,145.705658 40.177666,145.705658 
	C40.177666,138.092926 40.177666,130.493210 40.177666,122.893486 
	C39.960251,122.864571 39.742836,122.835663 39.525421,122.806747 
	C37.228184,130.459869 34.930950,138.113007 32.604176,145.864548 
	C26.878151,145.864548 21.240244,145.864548 15.366376,145.864548 
	C13.423442,139.204620 11.490704,132.579651 9.557965,125.954681 
	C9.401198,125.955376 9.244432,125.956078 9.087666,125.956772 
	C9.087666,132.440094 9.087666,138.923416 9.087666,146.000610 
	C6.428870,146.000610 4.166843,146.000610 1.452408,146.000305 
	C1.000000,126.979103 1.000000,107.958214 1.466909,88.469254 
	C6.736355,88.001190 11.538892,88.001190 16.502153,88.001190 
	C19.561613,98.666473 22.531151,109.018295 25.500690,119.370117 
	C25.857271,119.418869 26.213852,119.467621 26.570433,119.516373 
	C29.593193,109.056465 32.615952,98.596558 35.589779,88.305984 
	C42.892387,88.305984 49.802986,88.305984 57.164650,88.305984 
	C57.164650,93.071770 57.164650,97.536079 57.090622,102.396538 
	C56.245213,109.474449 54.970074,116.148987 54.874100,122.840439 
	C54.806656,127.542923 56.344509,132.268448 57.165539,136.983673 
z"/>
<path fill="#000000" opacity="1.000000" stroke="none" 
	d="
M57.164650,102.000389 
	C57.164650,97.536079 57.164650,93.071770 57.164650,88.305984 
	C49.802986,88.305984 42.892387,88.305984 35.589779,88.305984 
	C32.615952,98.596558 29.593193,109.056465 26.570433,119.516373 
	C26.213852,119.467621 25.857271,119.418869 25.500690,119.370117 
	C22.531151,109.018295 19.561613,98.666473 16.502153,88.001190 
	C11.538892,88.001190 6.736355,88.001190 1.466909,88.000595 
	C1.000000,86.285645 1.000000,84.571281 1.000000,82.428467 
	C6.186150,82.666557 11.369864,83.846611 16.559057,83.871223 
	C23.223520,83.902840 29.055464,81.669945 34.099285,76.630562 
	C41.808941,68.927689 40.533520,56.512310 31.856876,49.992245 
	C26.379509,45.876278 20.191914,42.710743 14.363172,39.054672 
	C11.764077,37.424397 9.264129,35.636055 6.742361,33.935085 
	C11.757452,25.904285 17.571384,27.772388 30.955606,41.289810 
	C32.583206,39.768536 34.228848,38.230400 36.326767,36.702370 
	C36.912685,36.863892 37.046322,37.015305 37.179958,37.166718 
	C41.885696,37.583656 46.591434,38.000595 51.795715,38.461704 
	C51.795715,52.883366 51.795715,67.595078 51.795715,82.623245 
	C57.646957,82.623245 63.026203,82.623245 68.926117,82.623245 
	C68.926117,67.831749 68.926117,53.128262 68.926117,38.217106 
	C73.376030,38.217106 77.318207,38.217106 81.999870,38.217106 
	C81.999870,43.015697 81.549133,47.982319 82.116425,52.829800 
	C82.792816,58.609589 83.867722,64.439560 85.643379,69.967232 
	C87.497116,75.737991 92.097954,79.326851 97.861900,81.732880 
	C97.917435,82.093803 97.979637,82.007462 97.542648,82.000534 
	C94.958740,81.995705 92.809532,82.064011 90.665291,81.989311 
	C75.183792,81.449974 64.469635,88.865196 57.164650,102.000389 
z"/>
<path fill="#FDCE2C" opacity="1.000000" stroke="none" 
	d="
M193.000000,145.536819 
	C184.533035,146.000000 176.066071,146.000000 167.300552,146.000000 
	C167.300552,126.682922 167.300552,107.633728 167.300552,88.001457 
	C175.541138,88.001457 183.801910,88.001457 192.531342,88.000732 
	C193.000000,92.356903 193.000000,96.713799 192.542480,101.535034 
	C189.478348,101.999374 186.871750,101.999374 184.292206,101.999374 
	C184.292206,104.958885 184.292206,107.360306 184.292206,110.000000 
	C187.388031,110.000000 190.194016,110.000000 193.000000,110.000000 
	C193.000000,114.356903 193.000000,118.713799 192.542389,123.535561 
	C189.480164,124.000420 186.875565,124.000420 184.292236,124.000420 
	C184.292236,127.294121 184.292236,130.028046 184.292236,133.000000 
	C187.386383,133.000000 190.193192,133.000000 193.000000,133.000000 
	C193.000000,137.024551 193.000000,141.049088 193.000000,145.536819 
z"/>
<path fill="#37C4FE" opacity="1.000000" stroke="none" 
	d="
M175.798218,164.981339 
	C156.410660,164.981339 137.023102,164.981339 117.230957,164.981339 
	C116.973045,161.477982 116.657166,157.187164 116.293808,152.251480 
	C141.716675,151.833206 166.889679,151.419037 192.531342,151.002441 
	C193.000000,155.356903 193.000000,159.713806 193.000000,164.535355 
	C188.373993,164.997086 183.748001,164.994156 178.628387,164.650055 
	C179.084579,161.760742 180.034378,159.212601 180.984161,156.664474 
	C180.384399,156.274414 179.784622,155.884354 179.184860,155.494308 
	C178.251389,156.524673 176.840317,157.416260 176.491531,158.616547 
	C175.904999,160.634857 175.993622,162.849365 175.798218,164.981339 
M127.387222,159.977249 
	C127.387222,159.977249 126.963219,160.011185 126.680038,159.230453 
	C126.010567,157.789581 125.341087,156.348724 124.671616,154.907852 
	C123.761513,155.370773 122.084045,155.810059 122.068947,156.300537 
	C121.986267,158.984756 122.311646,161.681534 122.496811,164.374008 
	C123.827911,163.752563 125.159012,163.131119 127.156914,162.839645 
	C127.393127,162.901230 127.629349,162.962814 128.290924,163.560165 
	C129.300064,163.757553 130.309219,163.954941 131.753464,164.237427 
	C130.922073,163.115189 130.451981,162.480637 130.709869,161.835800 
	C131.026718,160.721802 131.343552,159.607819 131.660385,158.493820 
	C130.549805,158.673309 129.439240,158.852798 128.024475,159.473862 
	C127.953796,159.638031 127.883118,159.802185 127.387222,159.977249 
M148.963455,159.748505 
	C149.051926,160.815659 149.140381,161.882797 149.228851,162.949951 
	C149.823395,161.385742 149.828796,159.842606 149.799088,158.300171 
	C149.798141,158.250381 149.285355,158.137741 149.269485,158.172455 
	C149.140762,158.454269 149.073730,158.764282 148.963455,159.748505 
z"/>
<path fill="#2CC1FE" opacity="1.000000" stroke="none" 
	d="
M193.000000,82.531342 
	C190.521454,83.000000 188.042908,83.000000 185.284546,83.000000 
	C185.284546,70.362862 185.284546,57.959682 185.284546,45.000076 
	C187.555695,45.000076 189.824249,45.000076 192.546417,45.000038 
	C193.000000,57.354229 193.000000,69.708458 193.000000,82.531342 
z"/>
<path fill="#000102" opacity="1.000000" stroke="none" 
	d="
M1.000000,58.454109 
	C6.681136,61.009781 12.408448,63.938854 17.985804,67.130020 
	C18.694359,67.535423 19.221739,69.759560 18.777651,70.358292 
	C17.908216,71.530502 16.394760,72.601303 14.970549,72.918922 
	C9.557575,74.126053 5.706995,70.753922 1.361818,67.957977 
	C1.000000,64.969406 1.000000,61.938816 1.000000,58.454109 
z"/>
<path fill="#2CC1FE" opacity="1.000000" stroke="none" 
	d="
M193.000000,38.535347 
	C190.523010,39.000000 188.046021,39.000000 185.286728,39.000000 
	C185.286728,34.368080 185.286728,29.962669 185.286728,25.000854 
	C187.557922,25.000854 189.825485,25.000854 192.546539,25.000427 
	C193.000000,29.356899 193.000000,33.713799 193.000000,38.535347 
z"/>
<path fill="#000000" opacity="1.000000" stroke="none" 
	d="
M193.000000,132.550018 
	C190.193192,133.000000 187.386383,133.000000 184.292236,133.000000 
	C184.292236,130.028046 184.292236,127.294121 184.292236,124.000420 
	C186.875565,124.000420 189.480164,124.000420 192.542389,124.000214 
	C193.000000,126.700012 193.000000,129.400024 193.000000,132.550018 
z"/>
<path fill="#000000" opacity="1.000000" stroke="none" 
	d="
M193.000000,109.555832 
	C190.194016,110.000000 187.388031,110.000000 184.292206,110.000000 
	C184.292206,107.360306 184.292206,104.958885 184.292206,101.999374 
	C186.871750,101.999374 189.478348,101.999374 192.542480,101.999687 
	C193.000000,104.370560 193.000000,106.741112 193.000000,109.555832 
z"/>
<path fill="#2EC1FD" opacity="1.000000" stroke="none" 
	d="
M57.090622,102.396538 
	C64.469635,88.865196 75.183792,81.449974 90.665291,81.989311 
	C92.809532,82.064011 94.958740,81.995705 97.574188,81.957680 
	C104.100288,85.366592 110.157852,88.811424 116.620331,92.715057 
	C123.467262,102.442245 126.774879,112.640320 126.168266,123.999367 
	C125.850876,133.539383 121.056343,141.347549 116.272789,149.099640 
	C108.584030,161.559830 100.733231,173.920319 92.897400,186.289032 
	C92.219551,187.358994 91.143532,188.176712 89.822433,189.562805 
	C81.748177,176.871078 73.813324,164.570068 66.074272,152.147064 
	C63.084961,147.348557 60.539875,142.273285 57.478973,137.153900 
	C56.344509,132.268448 54.806656,127.542923 54.874100,122.840439 
	C54.970074,116.148987 56.245213,109.474449 57.090622,102.396538 
M86.837166,143.170486 
	C102.375641,145.265274 114.443733,133.302811 114.877075,119.463463 
	C115.284485,106.452385 105.157158,95.178207 92.208359,94.116005 
	C79.601288,93.081841 67.924850,102.095535 65.909508,114.417549 
	C63.642620,128.277634 71.747902,139.866226 86.837166,143.170486 
z"/>
<path fill="#2CC0FD" opacity="1.000000" stroke="none" 
	d="
M132.999496,30.130833 
	C133.074005,28.202766 133.148499,26.760921 133.232727,25.131002 
	C142.998001,25.131002 152.696014,23.755611 161.835098,25.430363 
	C178.519272,28.487770 185.496170,46.562340 182.255646,60.280659 
	C179.777100,70.773239 174.248260,79.281624 163.548935,81.458054 
	C153.835083,83.434006 143.601028,82.852631 132.999496,83.431244 
	C132.999496,65.116699 132.999496,47.866875 132.999496,30.130833 
M162.973343,66.156342 
	C166.196014,57.987762 166.469894,49.837078 162.990021,41.643559 
	C160.758331,36.388966 156.493103,33.725780 151.227570,34.535980 
	C151.227570,47.268188 151.227570,60.005573 151.227570,72.675385 
	C156.987137,74.214584 160.039337,70.957436 162.973343,66.156342 
z"/>
<path fill="#FCCD2D" opacity="1.000000" stroke="none" 
	d="
M126.503418,124.202255 
	C126.774879,112.640320 123.467262,102.442245 116.952942,92.850739 
	C116.595078,91.302048 116.309525,90.076462 115.833534,88.033516 
	C121.656487,88.033516 127.067841,87.860382 132.446762,88.200394 
	C133.365646,88.258476 134.533096,90.398796 134.927429,91.766930 
	C137.528030,100.789459 139.943817,109.865196 142.450928,118.914993 
	C142.523529,119.177078 142.941010,119.343613 143.586945,119.874825 
	C145.415710,113.788673 147.241318,107.896889 148.947159,101.970634 
	C150.063400,98.092659 150.840973,94.108543 152.138016,90.297134 
	C152.479568,89.293449 154.141037,88.199959 155.275818,88.105904 
	C158.726608,87.819885 162.216248,88.002266 166.495148,88.002266 
	C164.226257,95.960503 162.112869,103.379387 159.995911,110.797241 
	C157.005524,121.275665 153.914902,131.727097 151.084839,142.248627 
	C150.315292,145.109695 149.102234,146.081085 146.062347,146.084702 
	C131.378036,146.102203 131.018906,145.917847 128.012344,131.175980 
	C127.554794,128.932556 127.226593,126.662743 126.503418,124.202255 
z"/>
<path fill="#C7ECFB" opacity="1.000000" stroke="none" 
	d="
M175.884140,165.328171 
	C175.993622,162.849365 175.904999,160.634857 176.491531,158.616547 
	C176.840317,157.416260 178.251389,156.524673 179.184860,155.494308 
	C179.784622,155.884354 180.384399,156.274414 180.984161,156.664474 
	C180.034378,159.212601 179.084579,161.760742 178.175980,164.639999 
	C177.853531,165.597763 177.489883,166.224396 177.126236,166.851028 
	C176.740845,166.459015 176.355453,166.067017 175.884140,165.328171 
z"/>
<path fill="#000000" opacity="1.000000" stroke="none" 
	d="
M36.584778,36.480042 
	C36.867340,35.998997 37.344170,35.750393 37.820999,35.501785 
	C37.781864,35.968681 37.742729,36.435581 37.441776,37.034599 
	C37.046322,37.015305 36.912685,36.863892 36.584778,36.480042 
z"/>
<path fill="#E0F5FE" opacity="1.000000" stroke="none" 
	d="
M126.490112,162.509674 
	C125.159012,163.131119 123.827911,163.752563 122.496811,164.374008 
	C122.311646,161.681534 121.986267,158.984756 122.068947,156.300537 
	C122.084045,155.810059 123.761513,155.370773 124.671616,154.907852 
	C125.341087,156.348724 126.010567,157.789581 126.822952,159.948364 
	C126.807281,161.280746 126.648697,161.895203 126.490112,162.509674 
z"/>
<path fill="#F1FAFE" opacity="1.000000" stroke="none" 
	d="
M129.981888,161.846069 
	C130.451981,162.480637 130.922073,163.115189 131.753464,164.237427 
	C130.309219,163.954941 129.300064,163.757553 128.119751,162.910324 
	C127.903198,161.495773 127.857819,160.731064 127.812447,159.966354 
	C127.883118,159.802185 127.953796,159.638031 128.300644,159.245377 
	C128.576813,159.016891 128.819901,158.964020 128.929077,159.250748 
	C129.356232,160.042160 129.674194,160.546844 129.990082,161.250168 
	C129.988022,161.448807 129.981888,161.846069 129.981888,161.846069 
z"/>
<path fill="#E0F5FE" opacity="1.000000" stroke="none" 
	d="
M128.819901,158.964020 
	C128.819901,158.964020 128.576813,159.016891 128.452728,159.024597 
	C129.439240,158.852798 130.549805,158.673309 131.660385,158.493820 
	C131.343552,159.607819 131.026718,160.721802 130.345886,161.840942 
	C129.981888,161.846069 129.988022,161.448807 130.212219,161.038239 
	C129.897568,160.073120 129.358734,159.518570 128.819901,158.964020 
z"/>
<path fill="#E0F5FE" opacity="1.000000" stroke="none" 
	d="
M148.975677,159.407104 
	C149.073730,158.764282 149.140762,158.454269 149.269485,158.172455 
	C149.285355,158.137741 149.798141,158.250381 149.799088,158.300171 
	C149.828796,159.842606 149.823395,161.385742 149.228851,162.949951 
	C149.140381,161.882797 149.051926,160.815659 148.975677,159.407104 
z"/>
<path fill="#52CCFE" opacity="1.000000" stroke="none" 
	d="
M127.599838,159.971802 
	C127.857819,160.731064 127.903198,161.495773 127.907074,162.642456 
	C127.629349,162.962814 127.393127,162.901230 126.823517,162.674652 
	C126.648697,161.895203 126.807281,161.280746 126.964539,160.338730 
	C126.963219,160.011185 127.387222,159.977249 127.599838,159.971802 
z"/>
<path fill="#FBFDFD" opacity="1.000000" stroke="none" 
	d="
M86.394501,143.121857 
	C71.747902,139.866226 63.642620,128.277634 65.909508,114.417549 
	C67.924850,102.095535 79.601288,93.081841 92.208359,94.116005 
	C105.157158,95.178207 115.284485,106.452385 114.877075,119.463463 
	C114.443733,133.302811 102.375641,145.265274 86.394501,143.121857 
M82.367622,111.641251 
	C82.369087,117.943535 82.296097,124.246979 82.395096,130.547729 
	C82.477219,135.774612 84.061073,136.655762 88.330200,133.838852 
	C93.865059,130.186768 99.346458,126.448898 104.761375,122.621368 
	C108.859329,119.724731 108.781258,117.712769 104.541641,114.718948 
	C100.208321,111.658943 95.869247,108.593399 91.379189,105.774803 
	C89.099159,104.343544 86.481400,103.450317 84.016304,102.313873 
	C83.466904,105.106758 82.917503,107.899643 82.367622,111.641251 
z"/>
<path fill="#000001" opacity="1.000000" stroke="none" 
	d="
M162.815140,66.513641 
	C160.039337,70.957436 156.987137,74.214584 151.227570,72.675385 
	C151.227570,60.005573 151.227570,47.268188 151.227570,34.535980 
	C156.493103,33.725780 160.758331,36.388966 162.990021,41.643559 
	C166.469894,49.837078 166.196014,57.987762 162.815140,66.513641 
z"/>
<path fill="#81DAFE" opacity="1.000000" stroke="none" 
	d="
M128.929077,159.250748 
	C129.358734,159.518570 129.897568,160.073120 130.214279,160.839600 
	C129.674194,160.546844 129.356232,160.042160 128.929077,159.250748 
z"/>
<path fill="#FDD035" opacity="1.000000" stroke="none" 
	d="
M82.367859,111.166885 
	C82.917503,107.899643 83.466904,105.106758 84.016312,102.313873 
	C86.481400,103.450317 89.099159,104.343544 91.379189,105.774803 
	C95.869247,108.593399 100.208321,111.658943 104.541641,114.718948 
	C108.781258,117.712769 108.859329,119.724731 104.761375,122.621368 
	C99.346458,126.448898 93.865059,130.186768 88.330200,133.838852 
	C84.061073,136.655762 82.477219,135.774612 82.395096,130.547729 
	C82.296097,124.246979 82.369087,117.943535 82.367859,111.166885 
z"/>
</svg>